<?xml version="1.0" encoding="UTF-8" standalone="no"?>
<!-- Created with Inkscape (http://www.inkscape.org/) -->

<svg
   xmlns:dc="http://purl.org/dc/elements/1.1/"
   xmlns:cc="http://creativecommons.org/ns#"
   xmlns:rdf="http://www.w3.org/1999/02/22-rdf-syntax-ns#"
   xmlns:svg="http://www.w3.org/2000/svg"
   xmlns="http://www.w3.org/2000/svg"
   xmlns:sodipodi="http://sodipodi.sourceforge.net/DTD/sodipodi-0.dtd"
   xmlns:inkscape="http://www.inkscape.org/namespaces/inkscape"
   inkscape:version="0.91 r13725"
   version="1.1"
   id="svg2"
   viewBox="0 0 799.05792 285.11045"
   height="285.11044"
   width="799.05792"
   sodipodi:docname="logo_transp.svg">
  <sodipodi:namedview
     inkscape:window-maximized="1"
     inkscape:window-y="-8"
     inkscape:window-x="-8"
     inkscape:window-height="1027"
     inkscape:window-width="1920"
     inkscape:guide-bbox="true"
     showguides="true"
     units="px"
     showgrid="false"
     inkscape:current-layer="layer1"
     inkscape:document-units="px"
     inkscape:cy="95.621966"
     inkscape:cx="517.72106"
     inkscape:zoom="1.6321683"
     inkscape:pageshadow="2"
     inkscape:pageopacity="0.0"
     borderopacity="1.0"
     bordercolor="#666666"
     pagecolor="#ffffff"
     id="base"
     showborder="true"
     fit-margin-top="0"
     fit-margin-left="0"
     fit-margin-right="0"
     fit-margin-bottom="0" />
  <defs
     id="defs4" />
  <metadata
     id="metadata7">
    <rdf:RDF>
      <cc:Work
         rdf:about="">
        <dc:format>image/svg+xml</dc:format>
        <dc:type
           rdf:resource="http://purl.org/dc/dcmitype/StillImage" />
        <dc:title></dc:title>
      </cc:Work>
    </rdf:RDF>
  </metadata>
  <g
     transform="translate(-98.864091,-61.471252)"
     id="layer1"
     inkscape:groupmode="layer"
     inkscape:label="Layer 1">
    <path
       id="path4756"
       title="sin(x)"
       d="m 99.935449,196.48556 c 37.948341,-46.48715 75.896681,-90.6094 113.845021,-100.984275 37.94835,-10.374878 75.89669,14.172145 113.84503,56.042045 37.94835,41.8699 75.89669,96.91662 113.84503,125.92534 37.94834,29.00876 75.8967,28.95981 113.84504,0 37.94834,-28.9598 75.89667,-84.02828 113.84503,-125.92534 37.94834,-41.89706 75.89668,-66.355904 113.84502,-56.042045 37.94835,10.313855 75.89668,54.497125 113.84503,100.984275"
       style="fill:none;stroke:#c2262e;stroke-width:2.975;stroke-miterlimit:4;stroke-dasharray:none;stroke-opacity:1;opacity:0.41920004"
       inkscape:connector-curvature="0"
       inkscape:export-xdpi="90"
       inkscape:export-ydpi="90" />
    <path
       inkscape:connector-curvature="0"
       style="fill:none;stroke:#555555;stroke-width:2.975;stroke-miterlimit:4;stroke-dasharray:none;stroke-opacity:1;opacity:0.41920004"
       d="m 99.935449,195.79377 c 37.948341,46.48716 75.896681,90.60942 113.845021,100.98429 37.94835,10.37488 75.89669,-14.17214 113.84503,-56.04204 37.94835,-41.86991 75.89669,-96.91662 113.84503,-125.92535 37.94834,-29.008751 75.8967,-28.959794 113.84504,0 37.94834,28.9598 75.89667,84.02828 113.84503,125.92535 37.94834,41.89705 75.89668,66.3559 113.84502,56.04204 37.94835,-10.31385 75.89668,-54.49713 113.84503,-100.98429"
       title="sin(x)"
       id="path4769"
       inkscape:export-xdpi="90"
       inkscape:export-ydpi="90" />
    <path
       inkscape:connector-curvature="0"
       style="fill:none;stroke:#969696;stroke-width:2.975;stroke-miterlimit:4;stroke-dasharray:none;stroke-opacity:1;opacity:0.41920004"
       d="m 99.935449,211.71617 c 37.948341,-46.48716 75.896681,-90.60941 113.845021,-100.98428 37.94835,-10.37488 75.89669,14.17214 113.84503,56.04204 37.94835,41.86991 75.89669,96.91662 113.84503,125.92535 37.94834,29.00875 75.8967,28.95979 113.84504,0 37.94834,-28.95981 75.89667,-84.02829 113.84503,-125.92535 37.94834,-41.89705 75.89668,-66.3559 113.84502,-56.04204 37.94835,10.31385 75.89668,54.49712 113.84503,100.98428"
       title="sin(x)"
       id="path4771"
       inkscape:export-xdpi="90"
       inkscape:export-ydpi="90" />
    <path
       id="path4775"
       title="sin(x)"
       d="m 99.935449,211.6336 c 37.948341,46.48716 75.896681,90.60941 113.845021,100.98429 37.94835,10.37488 75.89669,-14.17215 113.84503,-56.04205 37.94835,-41.86991 75.89669,-96.91662 113.84503,-125.92534 37.94834,-29.00875 75.8967,-28.9598 113.84504,0 37.94834,28.9598 75.89667,84.02828 113.84503,125.92534 37.94834,41.89706 75.89668,66.35591 113.84502,56.04205 37.94835,-10.31385 75.89668,-54.49713 113.84503,-100.98429"
       style="fill:none;stroke:#c2262e;stroke-width:2.975;stroke-miterlimit:4;stroke-dasharray:none;stroke-opacity:1;opacity:0.41920004"
       inkscape:connector-curvature="0"
       inkscape:export-xdpi="90"
       inkscape:export-ydpi="90" />
    <path
       id="path4773"
       title="sin(x)"
       d="m 99.935449,204.40548 c 37.948341,-46.48716 75.896681,-90.60941 113.845021,-100.98429 37.94835,-10.374873 75.89669,14.17215 113.84503,56.04206 37.94835,41.86989 75.89669,96.91661 113.84503,125.92533 37.94834,29.00876 75.8967,28.95981 113.84504,0 37.94834,-28.95979 75.89667,-84.02828 113.84503,-125.92533 37.94834,-41.89707 75.89668,-66.355914 113.84502,-56.04206 37.94835,10.31386 75.89668,54.49713 113.84503,100.98429"
       style="fill:none;stroke:#000000;stroke-width:2.975;stroke-miterlimit:4;stroke-dasharray:none;opacity:0.41920004"
       inkscape:connector-curvature="0"
       inkscape:export-xdpi="90"
       inkscape:export-ydpi="90" />
    <path
       inkscape:connector-curvature="0"
       style="fill:none;stroke:#000000;stroke-width:2.975;stroke-miterlimit:4;stroke-dasharray:none;opacity:0.41920004"
       d="m 99.935449,204.32292 c 37.948341,46.48716 75.896681,90.60941 113.845021,100.98428 37.94835,10.37487 75.89669,-14.17215 113.84503,-56.04205 37.94835,-41.8699 75.89669,-96.91662 113.84503,-125.92534 37.94834,-29.008749 75.8967,-28.9598 113.84504,0 37.94834,28.9598 75.89667,84.02828 113.84503,125.92534 37.94834,41.89706 75.89668,66.3559 113.84502,56.04205 37.94835,-10.31385 75.89668,-54.49712 113.84503,-100.98428"
       title="sin(x)"
       id="path4777"
       inkscape:export-xdpi="90"
       inkscape:export-ydpi="90" />
  </g>
</svg>
