<?xml version="1.0" encoding="UTF-8" standalone="no"?>
<!-- Created with Inkscape (http://www.inkscape.org/) -->

<svg
   xmlns:dc="http://purl.org/dc/elements/1.1/"
   xmlns:cc="http://creativecommons.org/ns#"
   xmlns:rdf="http://www.w3.org/1999/02/22-rdf-syntax-ns#"
   xmlns:svg="http://www.w3.org/2000/svg"
   xmlns="http://www.w3.org/2000/svg"
   xmlns:sodipodi="http://sodipodi.sourceforge.net/DTD/sodipodi-0.dtd"
   xmlns:inkscape="http://www.inkscape.org/namespaces/inkscape"
   inkscape:version="0.91 r13725"
   version="1.1"
   id="svg2"
   viewBox="0 0 1000 1051.3622"
   height="1051.3622"
   width="1000"
   sodipodi:docname="logo.svg">
  <sodipodi:namedview
     inkscape:window-maximized="1"
     inkscape:window-y="-8"
     inkscape:window-x="-8"
     inkscape:window-height="1027"
     inkscape:window-width="1920"
     inkscape:guide-bbox="true"
     showguides="true"
     units="px"
     showgrid="false"
     inkscape:current-layer="layer1"
     inkscape:document-units="px"
     inkscape:cy="408.38378"
     inkscape:cx="206.35087"
     inkscape:zoom="0.57705863"
     inkscape:pageshadow="2"
     inkscape:pageopacity="0.0"
     borderopacity="1.0"
     bordercolor="#666666"
     pagecolor="#ffffff"
     id="base" />
  <defs
     id="defs4" />
  <metadata
     id="metadata7">
    <rdf:RDF>
      <cc:Work
         rdf:about="">
        <dc:format>image/svg+xml</dc:format>
        <dc:type
           rdf:resource="http://purl.org/dc/dcmitype/StillImage" />
        <dc:title></dc:title>
      </cc:Work>
    </rdf:RDF>
  </metadata>
  <g
     transform="translate(0,-0.9998547)"
     id="layer1"
     inkscape:groupmode="layer"
     inkscape:label="Layer 1">
    <path
       id="path4756"
       title="sin(x)"
       d="m 120.91692,270.40902 c 37.93403,-59.11918 75.86806,-115.23084 113.80208,-128.4249 37.93404,-13.19406 75.86807,18.02316 113.8021,71.27044 37.93403,53.24728 75.86806,123.25193 113.80209,160.14324 37.93403,36.89135 75.86807,36.8291 113.8021,0 37.93403,-36.8291 75.86805,-106.86142 113.80209,-160.14324 37.93403,-53.28181 75.86806,-84.3869 113.80209,-71.27044 37.93403,13.11645 75.86805,69.30572 113.80209,128.4249"
       style="fill:none;stroke:#d0093a;stroke-width:2.90300012;stroke-miterlimit:4;stroke-dasharray:none;stroke-opacity:1"
       inkscape:connector-curvature="0" />
    <path
       inkscape:connector-curvature="0"
       style="fill:none;stroke:#000000;stroke-width:2.90300012;stroke-miterlimit:4;stroke-dasharray:none"
       d="m 120.91692,269.52925 c 37.93403,59.11919 75.86806,115.23086 113.80208,128.42491 37.93404,13.19406 75.86807,-18.02316 113.8021,-71.27044 37.93403,-53.24728 75.86806,-123.25193 113.80209,-160.14324 37.93403,-36.89135 75.86807,-36.82909 113.8021,0 37.93403,36.82909 75.86805,106.86142 113.80209,160.14324 37.93403,53.28181 75.86806,84.3869 113.80209,71.27044 37.93403,-13.11645 75.86805,-69.30572 113.80209,-128.42491"
       title="sin(x)"
       id="path4769" />
    <path
       inkscape:connector-curvature="0"
       style="fill:none;stroke:#000000;stroke-width:2.90300012;stroke-miterlimit:4;stroke-dasharray:none"
       d="m 120.91692,289.77826 c 37.93403,-59.11918 75.86806,-115.23085 113.80208,-128.4249 37.93404,-13.19406 75.86807,18.02316 113.8021,71.27044 37.93403,53.24728 75.86806,123.25193 113.80209,160.14324 37.93403,36.89135 75.86807,36.82909 113.8021,0 37.93403,-36.8291 75.86805,-106.86143 113.80209,-160.14324 37.93403,-53.28181 75.86806,-84.3869 113.80209,-71.27044 37.93403,13.11645 75.86805,69.30572 113.80209,128.4249"
       title="sin(x)"
       id="path4771" />
    <path
       id="path4775"
       title="sin(x)"
       d="m 120.91692,289.67326 c 37.93403,59.11919 75.86806,115.23085 113.80208,128.42491 37.93404,13.19406 75.86807,-18.02317 113.8021,-71.27044 37.93403,-53.24729 75.86806,-123.25193 113.80209,-160.14324 37.93403,-36.89135 75.86807,-36.8291 113.8021,0 37.93403,36.82909 75.86805,106.86142 113.80209,160.14324 37.93403,53.28181 75.86806,84.3869 113.80209,71.27044 37.93403,-13.11645 75.86805,-69.30572 113.80209,-128.42491"
       style="fill:none;stroke:#d0093a;stroke-width:2.90300012;stroke-miterlimit:4;stroke-dasharray:none;stroke-opacity:1"
       inkscape:connector-curvature="0" />
    <path
       id="path4773"
       title="sin(x)"
       d="m 120.91692,280.48103 c 37.93403,-59.11919 75.86806,-115.23085 113.80208,-128.42491 37.93404,-13.19406 75.86807,18.02317 113.8021,71.27045 37.93403,53.24727 75.86806,123.25192 113.80209,160.14323 37.93403,36.89135 75.86807,36.8291 113.8021,0 37.93403,-36.82909 75.86805,-106.86142 113.80209,-160.14323 37.93403,-53.28182 75.86806,-84.38691 113.80209,-71.27045 37.93403,13.11645 75.86805,69.30572 113.80209,128.42491"
       style="fill:none;stroke:#000000;stroke-width:2.90300012;stroke-miterlimit:4;stroke-dasharray:none"
       inkscape:connector-curvature="0" />
    <path
       inkscape:connector-curvature="0"
       style="fill:none;stroke:#000000;stroke-width:2.90300012;stroke-miterlimit:4;stroke-dasharray:none"
       d="m 120.91692,280.37603 c 37.93403,59.11919 75.86806,115.23085 113.80208,128.42491 37.93404,13.19405 75.86807,-18.02317 113.8021,-71.27045 37.93403,-53.24728 75.86806,-123.25193 113.80209,-160.14324 37.93403,-36.89134 75.86807,-36.82909 113.8021,0 37.93403,36.8291 75.86805,106.86142 113.80209,160.14324 37.93403,53.28182 75.86806,84.3869 113.80209,71.27045 37.93403,-13.11646 75.86805,-69.30572 113.80209,-128.42491"
       title="sin(x)"
       id="path4777" />
    <text
       xml:space="preserve"
       style="font-style:normal;font-variant:normal;font-weight:300;font-stretch:normal;font-size:144.2749939px;line-height:110.00000238%;font-family:'Segoe UI';-inkscape-font-specification:'Segoe UI, Light';text-align:start;letter-spacing:0px;word-spacing:0px;writing-mode:lr-tb;text-anchor:start;fill:#000000;fill-opacity:1;stroke:none;stroke-width:1px;stroke-linecap:butt;stroke-linejoin:miter;stroke-opacity:1"
       x="176.97272"
       y="623.74066"
       id="text4781"
       sodipodi:linespacing="110%"><tspan
         sodipodi:role="line"
         id="tspan4783"
         x="176.97272"
         y="623.74066"
         style="font-style:normal;font-variant:normal;font-weight:300;font-stretch:normal;font-size:144.2749939px;line-height:110.00000238%;font-family:'Segoe UI';-inkscape-font-specification:'Segoe UI, Light';text-align:start;writing-mode:lr-tb;text-anchor:start">RESONATE</tspan></text>
  </g>
</svg>
