<?xml version="1.0" encoding="UTF-8" standalone="no"?>
<!-- Created with Inkscape (http://www.inkscape.org/) -->

<svg
   xmlns:dc="http://purl.org/dc/elements/1.1/"
   xmlns:cc="http://creativecommons.org/ns#"
   xmlns:rdf="http://www.w3.org/1999/02/22-rdf-syntax-ns#"
   xmlns:svg="http://www.w3.org/2000/svg"
   xmlns="http://www.w3.org/2000/svg"
   xmlns:sodipodi="http://sodipodi.sourceforge.net/DTD/sodipodi-0.dtd"
   xmlns:inkscape="http://www.inkscape.org/namespaces/inkscape"
   width="226.39238mm"
   height="36.785351mm"
   viewBox="0 0 802.17772 130.34179"
   id="svg4141"
   version="1.1"
   inkscape:version="0.91 r13725"
   sodipodi:docname="logo_v2_optimized.svg">
  <defs
     id="defs4143" />
  <sodipodi:namedview
     id="base"
     pagecolor="#ffffff"
     bordercolor="#666666"
     borderopacity="1.0"
     inkscape:pageopacity="0.0"
     inkscape:pageshadow="2"
     inkscape:zoom="0.7"
     inkscape:cx="-22.904971"
     inkscape:cy="-61.811356"
     inkscape:document-units="px"
     inkscape:current-layer="layer1"
     showgrid="false"
     showguides="true"
     inkscape:guide-bbox="true"
     inkscape:window-width="1920"
     inkscape:window-height="1027"
     inkscape:window-x="-8"
     inkscape:window-y="-8"
     inkscape:window-maximized="1"
     fit-margin-top="0"
     fit-margin-left="0"
     fit-margin-right="0"
     fit-margin-bottom="0">
    <sodipodi:guide
       position="277.78251,130.0814"
       orientation="0,1"
       id="guide4757" />
    <sodipodi:guide
       position="300.00587,3.812343"
       orientation="0,1"
       id="guide4759" />
    <sodipodi:guide
       position="271.46906,82.856777"
       orientation="1,0"
       id="guide4761" />
    <sodipodi:guide
       position="401.27365,84.119467"
       orientation="1,0"
       id="guide4763" />
  </sodipodi:namedview>
  <metadata
     id="metadata4146">
    <rdf:RDF>
      <cc:Work
         rdf:about="">
        <dc:format>image/svg+xml</dc:format>
        <dc:type
           rdf:resource="http://purl.org/dc/dcmitype/StillImage" />
        <dc:title></dc:title>
      </cc:Work>
    </rdf:RDF>
  </metadata>
  <g
     inkscape:label="Layer 1"
     inkscape:groupmode="layer"
     id="layer1"
     transform="translate(-4.050046,-371.259)">
    <text
       xml:space="preserve"
       style="font-style:normal;font-weight:normal;font-size:40px;line-height:125%;font-family:sans-serif;letter-spacing:0px;word-spacing:0px;fill:#000000;fill-opacity:1;stroke:none;stroke-width:2.9000001;stroke-linecap:butt;stroke-linejoin:miter;stroke-miterlimit:4;stroke-dasharray:none;stroke-opacity:1"
       x="-12.121829"
       y="499.40353"
       id="text4149"
       sodipodi:linespacing="125%"><tspan
         sodipodi:role="line"
         id="tspan4151"
         x="-12.121829"
         y="499.40353"
         style="font-style:normal;font-variant:normal;font-weight:300;font-stretch:normal;font-size:180px;font-family:'Segoe UI';-inkscape-font-specification:'Segoe UI Light';stroke-width:2.9000001;stroke-miterlimit:4;stroke-dasharray:none">RES   NATE</tspan></text>
    <path
       style="opacity:1;fill:none;fill-opacity:1;stroke:#000000;stroke-width:8.3920517;stroke-miterlimit:4;stroke-dasharray:none;stroke-opacity:1"
       d="m 341.9132,495.80331 a 59.880372,59.880372 0 0 1 -1.61434,0.0218 59.880372,59.880372 0 0 1 -59.88038,-59.88038 59.880372,59.880372 0 0 1 59.88038,-59.88037 59.880372,59.880372 0 0 1 1.61576,0.0218"
       id="path4755"
       inkscape:connector-curvature="0" />
    <path
       style="opacity:1;fill:none;fill-opacity:1;stroke:#c2262e;stroke-width:3.82773137;stroke-miterlimit:4;stroke-dasharray:none;stroke-opacity:1"
       d="m 341.03518,463.24705 a 27.312269,27.312269 0 0 1 -0.73632,0.01 27.312269,27.312269 0 0 1 -27.31227,-27.31227 27.312269,27.312269 0 0 1 27.31227,-27.31226 27.312269,27.312269 0 0 1 0.73697,0.01"
       id="circle4776"
       inkscape:connector-curvature="0" />
    <path
       style="opacity:1;fill:none;fill-opacity:1;stroke:#c2262e;stroke-width:7.40014553;stroke-miterlimit:4;stroke-dasharray:none;stroke-opacity:1"
       d="m 342.64965,383.16117 a 52.802755,52.802755 0 0 1 51.37796,52.78353 l 0,0 a 52.802755,52.802755 0 0 1 -51.37921,52.78356"
       id="path4799"
       inkscape:connector-curvature="0" />
    <path
       style="opacity:1;fill:none;fill-opacity:1;stroke:#000000;stroke-width:6.47371435;stroke-miterlimit:4;stroke-dasharray:none;stroke-opacity:1"
       d="m 341.54418,482.12024 a 46.192329,46.192329 0 0 1 -1.24532,0.0168 46.192329,46.192329 0 0 1 -46.19233,-46.19233 46.192329,46.192329 0 0 1 46.19233,-46.19232 46.192329,46.192329 0 0 1 1.24641,0.0168"
       id="circle4778"
       inkscape:connector-curvature="0" />
    <path
       style="opacity:1;fill:none;fill-opacity:1;stroke:#000000;stroke-width:5.28302193;stroke-miterlimit:4;stroke-dasharray:none;stroke-opacity:1"
       d="m 341.31602,398.26212 a 37.696302,37.696302 0 0 1 36.67914,37.68258 l 0,0 a 37.696302,37.696302 0 0 1 -36.68003,37.6826"
       id="path4796"
       inkscape:connector-curvature="0" />
  </g>
</svg>
