<?xml version="1.0" encoding="UTF-8" standalone="no"?>
<!-- Created with Inkscape (http://www.inkscape.org/) -->

<svg
   xmlns:dc="http://purl.org/dc/elements/1.1/"
   xmlns:cc="http://creativecommons.org/ns#"
   xmlns:rdf="http://www.w3.org/1999/02/22-rdf-syntax-ns#"
   xmlns:svg="http://www.w3.org/2000/svg"
   xmlns="http://www.w3.org/2000/svg"
   xmlns:sodipodi="http://sodipodi.sourceforge.net/DTD/sodipodi-0.dtd"
   xmlns:inkscape="http://www.inkscape.org/namespaces/inkscape"
   inkscape:version="0.91 r13725"
   version="1.1"
   id="svg2"
   viewBox="0 0 799.05792 285.11045"
   height="285.11044"
   width="799.05792"
   sodipodi:docname="logo.svg">
  <sodipodi:namedview
     inkscape:window-maximized="1"
     inkscape:window-y="-8"
     inkscape:window-x="-8"
     inkscape:window-height="1027"
     inkscape:window-width="1920"
     inkscape:guide-bbox="true"
     showguides="true"
     units="px"
     showgrid="false"
     inkscape:current-layer="layer1"
     inkscape:document-units="px"
     inkscape:cy="-49.40906"
     inkscape:cx="239.80447"
     inkscape:zoom="0.81608414"
     inkscape:pageshadow="2"
     inkscape:pageopacity="0.0"
     borderopacity="1.0"
     bordercolor="#666666"
     pagecolor="#ffffff"
     id="base"
     showborder="true"
     fit-margin-top="0"
     fit-margin-left="0"
     fit-margin-right="0"
     fit-margin-bottom="0" />
  <defs
     id="defs4" />
  <metadata
     id="metadata7">
    <rdf:RDF>
      <cc:Work
         rdf:about="">
        <dc:format>image/svg+xml</dc:format>
        <dc:type
           rdf:resource="http://purl.org/dc/dcmitype/StillImage" />
        <dc:title></dc:title>
      </cc:Work>
    </rdf:RDF>
  </metadata>
  <g
     transform="translate(-98.864091,-61.471252)"
     id="layer1"
     inkscape:groupmode="layer"
     inkscape:label="Layer 1">
    <path
       id="path4756"
       title="sin(x)"
       d="m 100.08573,194.43646 c 37.93403,-59.11918 75.86806,-115.230838 113.80208,-128.424898 37.93404,-13.19406 75.86807,18.02316 113.8021,71.270438 37.93403,53.24728 75.86806,123.25193 113.80209,160.14324 37.93403,36.89135 75.86807,36.8291 113.8021,0 37.93403,-36.8291 75.86805,-106.86142 113.80209,-160.14324 37.93403,-53.281808 75.86806,-84.386898 113.80209,-71.270438 37.93403,13.11645 75.86805,69.305718 113.80209,128.424898"
       style="fill:none;stroke:#c2262e;stroke-width:2.90300012;stroke-miterlimit:4;stroke-dasharray:none;stroke-opacity:1"
       inkscape:connector-curvature="0"
       inkscape:export-xdpi="90"
       inkscape:export-ydpi="90" />
    <path
       inkscape:connector-curvature="0"
       style="fill:none;stroke:#000000;stroke-width:2.90300012;stroke-miterlimit:4;stroke-dasharray:none"
       d="m 100.08573,193.55669 c 37.93403,59.11919 75.86806,115.23086 113.80208,128.42491 37.93404,13.19406 75.86807,-18.02316 113.8021,-71.27044 37.93403,-53.24728 75.86806,-123.25193 113.80209,-160.143238 37.93403,-36.89135 75.86807,-36.82909 113.8021,0 37.93403,36.829088 75.86805,106.861418 113.80209,160.143238 37.93403,53.28181 75.86806,84.3869 113.80209,71.27044 37.93403,-13.11645 75.86805,-69.30572 113.80209,-128.42491"
       title="sin(x)"
       id="path4769"
       inkscape:export-xdpi="90"
       inkscape:export-ydpi="90" />
    <path
       inkscape:connector-curvature="0"
       style="fill:none;stroke:#000000;stroke-width:2.90300012;stroke-miterlimit:4;stroke-dasharray:none"
       d="m 100.08573,213.8057 c 37.93403,-59.11918 75.86806,-115.230848 113.80208,-128.424898 37.93404,-13.19406 75.86807,18.023158 113.8021,71.270438 37.93403,53.24728 75.86806,123.25193 113.80209,160.14324 37.93403,36.89135 75.86807,36.82909 113.8021,0 37.93403,-36.8291 75.86805,-106.86143 113.80209,-160.14324 37.93403,-53.28181 75.86806,-84.386898 113.80209,-71.270438 37.93403,13.11645 75.86805,69.305718 113.80209,128.424898"
       title="sin(x)"
       id="path4771"
       inkscape:export-xdpi="90"
       inkscape:export-ydpi="90" />
    <path
       id="path4775"
       title="sin(x)"
       d="m 100.08573,213.7007 c 37.93403,59.11919 75.86806,115.23085 113.80208,128.42491 37.93404,13.19406 75.86807,-18.02317 113.8021,-71.27044 37.93403,-53.24729 75.86806,-123.25193 113.80209,-160.14324 37.93403,-36.891348 75.86807,-36.829098 113.8021,0 37.93403,36.82909 75.86805,106.86142 113.80209,160.14324 37.93403,53.28181 75.86806,84.3869 113.80209,71.27044 37.93403,-13.11645 75.86805,-69.30572 113.80209,-128.42491"
       style="fill:none;stroke:#c2262e;stroke-width:2.90300012;stroke-miterlimit:4;stroke-dasharray:none;stroke-opacity:1"
       inkscape:connector-curvature="0"
       inkscape:export-xdpi="90"
       inkscape:export-ydpi="90" />
    <path
       id="path4773"
       title="sin(x)"
       d="m 100.08573,204.50847 c 37.93403,-59.11919 75.86806,-115.230848 113.80208,-128.424908 37.93404,-13.19406 75.86807,18.02317 113.8021,71.270448 37.93403,53.24727 75.86806,123.25192 113.80209,160.14323 37.93403,36.89135 75.86807,36.8291 113.8021,0 37.93403,-36.82909 75.86805,-106.86142 113.80209,-160.14323 37.93403,-53.281818 75.86806,-84.386908 113.80209,-71.270448 37.93403,13.11645 75.86805,69.305718 113.80209,128.424908"
       style="fill:none;stroke:#000000;stroke-width:2.90300012;stroke-miterlimit:4;stroke-dasharray:none"
       inkscape:connector-curvature="0"
       inkscape:export-xdpi="90"
       inkscape:export-ydpi="90" />
    <path
       inkscape:connector-curvature="0"
       style="fill:none;stroke:#000000;stroke-width:2.90300012;stroke-miterlimit:4;stroke-dasharray:none"
       d="m 100.08573,204.40347 c 37.93403,59.11919 75.86806,115.23085 113.80208,128.42491 37.93404,13.19405 75.86807,-18.02317 113.8021,-71.27045 37.93403,-53.24728 75.86806,-123.25193 113.80209,-160.14324 37.93403,-36.891338 75.86807,-36.829088 113.8021,0 37.93403,36.8291 75.86805,106.86142 113.80209,160.14324 37.93403,53.28182 75.86806,84.3869 113.80209,71.27045 37.93403,-13.11646 75.86805,-69.30572 113.80209,-128.42491"
       title="sin(x)"
       id="path4777"
       inkscape:export-xdpi="90"
       inkscape:export-ydpi="90" />
  </g>
</svg>
